<?xml version="1.0" encoding="UTF-8"?>
<!DOCTYPE svg PUBLIC "-//W3C//DTD SVG 1.1//EN" "http://www.w3.org/Graphics/SVG/1.1/DTD/svg11.dtd">
<svg xmlns="http://www.w3.org/2000/svg" version="1.1" width="1640px" height="2360px" style="shape-rendering:geometricPrecision; text-rendering:geometricPrecision; image-rendering:optimizeQuality; fill-rule:evenodd; clip-rule:evenodd" xmlns:xlink="http://www.w3.org/1999/xlink">
<g><path style="opacity:0.004" fill="#1908c4" d="M 923.5,703.5 C 927.029,703.624 930.695,703.791 934.5,704C 933.188,706.941 931.688,709.774 930,712.5C 928.622,710.787 926.955,709.453 925,708.5C 923.991,706.975 923.491,705.308 923.5,703.5 Z"/></g>
<g><path style="opacity:0.004" fill="#1205cc" d="M 901.5,707.5 C 902.552,707.351 903.552,707.517 904.5,708C 900,713.167 895.5,718.333 891,723.5C 890.5,722.5 890,721.5 889.5,720.5C 890.833,717.5 892.167,714.5 893.5,711.5C 896.348,710.341 899.015,709.008 901.5,707.5 Z"/></g>
<g><path style="opacity:0.004" fill="#000000" d="M 975.5,711.5 C 974.833,710.167 974.833,710.167 975.5,711.5 Z"/></g>
<g><path style="opacity:0.004" fill="#000000" d="M 975.5,711.5 C 976.492,711.328 977.158,711.662 977.5,712.5C 976.508,712.672 975.842,712.338 975.5,711.5 Z"/></g>
<g><path style="opacity:0.004" fill="#040108" d="M 977.5,712.5 C 985.617,715.612 993.283,719.612 1000.5,724.5C 1000.38,725.107 1000.04,725.44 999.5,725.5C 998.833,725.5 998.167,725.5 997.5,725.5C 996.564,724.026 995.23,723.026 993.5,722.5C 990.322,719.742 986.655,717.742 982.5,716.5C 980.611,715.396 978.945,714.063 977.5,712.5 Z"/></g>
<g><path style="opacity:0.004" fill="#0000ff" d="M 982.5,716.5 C 986.655,717.742 990.322,719.742 993.5,722.5C 991.5,722.5 989.5,722.5 987.5,722.5C 985.833,720.5 984.167,718.5 982.5,716.5 Z"/></g>
<g><path style="opacity:0.008" fill="#000086" d="M 987.5,722.5 C 989.5,722.5 991.5,722.5 993.5,722.5C 995.23,723.026 996.564,724.026 997.5,725.5C 994.904,724.735 992.237,724.401 989.5,724.5C 988.5,724.167 987.833,723.5 987.5,722.5 Z"/></g>
<g><path style="opacity:0.008" fill="#0000f7" d="M 989.5,724.5 C 992.237,724.401 994.904,724.735 997.5,725.5C 998.167,725.5 998.833,725.5 999.5,725.5C 999.672,726.492 999.338,727.158 998.5,727.5C 996.236,726.781 993.903,726.448 991.5,726.5C 990.5,726.167 989.833,725.5 989.5,724.5 Z"/></g>
<g><path style="opacity:0.008" fill="#0769e5" d="M 991.5,726.5 C 993.903,726.448 996.236,726.781 998.5,727.5C 998.477,729.927 997.977,732.26 997,734.5C 994.946,731.953 993.113,729.286 991.5,726.5 Z"/></g>
<g><path style="opacity:0.004" fill="#000000" d="M 1025.5,731.5 C 1024.83,730.167 1024.83,730.167 1025.5,731.5 Z"/></g>
<g><path style="opacity:0.004" fill="#000000" d="M 1025.5,731.5 C 1049.27,740.939 1066.61,757.272 1077.5,780.5C 1076.39,780.443 1075.39,780.11 1074.5,779.5C 1066.55,763.049 1054.88,749.882 1039.5,740C 1035.87,737.35 1031.87,735.517 1027.5,734.5C 1026.83,733.5 1026.17,732.5 1025.5,731.5 Z"/></g>
<g><path style="opacity:0.004" fill="#0000fb" d="M 1027.5,734.5 C 1031.87,735.517 1035.87,737.35 1039.5,740C 1054.88,749.882 1066.55,763.049 1074.5,779.5C 1073.83,779.5 1073.17,779.5 1072.5,779.5C 1072.5,778.833 1072.17,778.5 1071.5,778.5C 1071.67,777.508 1071.34,776.842 1070.5,776.5C 1061.14,759.469 1047.8,746.469 1030.5,737.5C 1029.17,736.833 1028.17,735.833 1027.5,734.5 Z"/></g>
<g><path style="opacity:0.004" fill="#01fbfc" d="M 1030.5,737.5 C 1047.8,746.469 1061.14,759.469 1070.5,776.5C 1067.02,774.725 1063.35,773.892 1059.5,774C 1063.63,775.235 1067.63,776.735 1071.5,778.5C 1072.17,778.5 1072.5,778.833 1072.5,779.5C 1073.69,781.751 1074.69,784.085 1075.5,786.5C 1074.83,786.5 1074.17,786.5 1073.5,786.5C 1070.48,784.326 1067.15,782.659 1063.5,781.5C 1052,767.161 1041,752.495 1030.5,737.5 Z"/></g>
<g><path style="opacity:0.471" fill="#0221ca" d="M 909.5,772.5 C 910.833,773.167 910.833,773.167 909.5,772.5 Z"/></g>
<g><path style="opacity:0.008" fill="#2080be" d="M 1070.5,776.5 C 1071.34,776.842 1071.67,777.508 1071.5,778.5C 1067.63,776.735 1063.63,775.235 1059.5,774C 1063.35,773.892 1067.02,774.725 1070.5,776.5 Z"/></g>
<g><path style="opacity:0.004" fill="#000000" d="M 829.5,775.5 C 830.833,776.167 830.833,776.167 829.5,775.5 Z"/></g>
<g><path style="opacity:0.004" fill="#0000ff" d="M 670.5,778.5 C 671.833,779.167 671.833,779.167 670.5,778.5 Z"/></g>
<g><path style="opacity:0.004" fill="#0000ff" d="M 673.5,780.5 C 672.833,779.167 672.833,779.167 673.5,780.5 Z"/></g>
<g><path style="opacity:0.004" fill="#1e0bce" d="M 673.5,780.5 C 675.593,781.045 677.593,781.878 679.5,783C 683.403,787.393 687.069,791.893 690.5,796.5C 684.203,791.871 678.537,786.538 673.5,780.5 Z"/></g>
<g><path style="opacity:0.004" fill="#1b09c2" d="M 829.5,776.5 C 817.73,804.573 808.897,833.573 803,863.5C 800.23,830.903 809.063,801.903 829.5,776.5 Z"/></g>
<g><path style="opacity:0.004" fill="#00f1f1" d="M 1078.5,782.5 C 1097.47,792.298 1113.97,805.298 1128,821.5C 1132.86,828.507 1137.03,835.841 1140.5,843.5C 1140.33,844.492 1140.66,845.158 1141.5,845.5C 1143.43,852.12 1145.26,858.786 1147,865.5C 1147.81,872.319 1148.65,878.985 1149.5,885.5C 1149.5,887.5 1149.5,889.5 1149.5,891.5C 1147.18,890.194 1144.85,888.861 1142.5,887.5C 1142.81,882.234 1142.14,877.234 1140.5,872.5C 1139.82,862.813 1137.16,853.813 1132.5,845.5C 1131.45,840.404 1129.12,836.071 1125.5,832.5C 1123.94,828.608 1121.6,825.275 1118.5,822.5C 1117.49,820.628 1116.66,818.628 1116,816.5C 1105.97,805.471 1094.47,796.304 1081.5,789C 1080.09,787.007 1079.09,784.84 1078.5,782.5 Z"/></g>
<g><path style="opacity:0.012" fill="#2bacff" d="M 1063.5,781.5 C 1067.15,782.659 1070.48,784.326 1073.5,786.5C 1071.08,786.122 1068.75,785.455 1066.5,784.5C 1065.17,783.833 1064.17,782.833 1063.5,781.5 Z"/></g>
<g><path style="opacity:0.004" fill="#000000" d="M 690.5,796.5 C 691.167,796.5 691.5,796.833 691.5,797.5C 691.167,797.167 690.833,796.833 690.5,796.5 Z"/></g>
<g><path style="opacity:0.004" fill="#261d8f" d="M 1072.5,779.5 C 1073.17,779.5 1073.83,779.5 1074.5,779.5C 1075.39,780.11 1076.39,780.443 1077.5,780.5C 1097.86,790.44 1115.36,804.107 1130,821.5C 1134.54,827.244 1138.04,833.578 1140.5,840.5C 1140.5,841.5 1140.5,842.5 1140.5,843.5C 1137.03,835.841 1132.86,828.507 1128,821.5C 1113.97,805.298 1097.47,792.298 1078.5,782.5C 1077.35,781.15 1076.68,781.316 1076.5,783C 1076.99,784.138 1077.32,785.305 1077.5,786.5C 1076.83,786.5 1076.17,786.5 1075.5,786.5C 1074.69,784.085 1073.69,781.751 1072.5,779.5 Z"/></g>
<g><path style="opacity:0.004" fill="#000000" d="M 691.5,797.5 C 692.833,798.167 692.833,798.167 691.5,797.5 Z"/></g>
<g><path style="opacity:0.004" fill="#180ec3" d="M 443.5,812.5 C 444.833,811.833 445.833,810.833 446.5,809.5C 450.287,805.015 454.787,801.348 460,798.5C 460.957,801.022 462.457,803.189 464.5,805C 456.046,807.143 448.546,810.976 442,816.5C 442.306,818.823 442.972,821.156 444,823.5C 446.296,825.057 448.462,826.724 450.5,828.5C 444.398,830.192 438.398,832.192 432.5,834.5C 432.769,828.89 434.603,823.556 438,818.5C 439.331,816.004 441.164,814.004 443.5,812.5 Z"/></g>
<g><path style="opacity:0.993" fill="#010000" d="M 881.5,1122.5 C 878.489,1123.67 875.822,1125.34 873.5,1127.5C 874.857,1129.57 876.19,1131.57 877.5,1133.5C 878.038,1135.12 878.371,1136.78 878.5,1138.5C 875.941,1135.07 873.608,1131.4 871.5,1127.5C 851.66,1137.33 830.66,1141.67 808.5,1140.5C 805.518,1140.04 802.518,1139.7 799.5,1139.5C 778.865,1136.51 760.198,1128.85 743.5,1116.5C 740.389,1124.11 735.056,1129.61 727.5,1133C 722.595,1134.95 717.595,1136.62 712.5,1138C 678.259,1137.22 644.259,1139.89 610.5,1146C 587.167,1146.11 563.833,1145.78 540.5,1145C 527.775,1142.87 516.109,1138.21 505.5,1131C 493.187,1119.41 487.52,1105.08 488.5,1088C 490.293,1071.03 494.127,1054.53 500,1038.5C 506.86,1024.25 513.527,1009.92 520,995.5C 527.211,979.567 529.878,962.9 528,945.5C 523.512,928.547 519.178,911.547 515,894.5C 514.145,882.871 517.811,872.871 526,864.5C 537.748,850.891 551.582,840.058 567.5,832C 600.141,823.403 623.974,834.236 639,864.5C 646.821,888.042 648.488,912.042 644,936.5C 639.4,952.301 634.4,967.967 629,983.5C 626.586,991.288 628.752,997.122 635.5,1001C 636.5,1001.67 637.5,1001.67 638.5,1001C 647.01,995.165 656.01,990.165 665.5,986C 669.887,985.774 674.221,985.274 678.5,984.5C 683.701,985.258 688.701,986.424 693.5,988C 700.733,958.348 715.733,933.515 738.5,913.5C 740.959,912.126 741.959,909.96 741.5,907C 741.151,903.093 740.485,899.26 739.5,895.5C 740.117,895.611 740.617,895.944 741,896.5C 741.87,900.824 742.703,905.158 743.5,909.5C 758.228,898.47 774.561,890.637 792.5,886C 793.085,884.698 793.751,883.531 794.5,882.5C 794.263,883.791 794.596,884.791 795.5,885.5C 799.36,885.192 803.026,884.525 806.5,883.5C 839.955,880.112 870.288,888.112 897.5,907.5C 898.745,897.815 898.579,888.149 897,878.5C 893.468,867.571 890.135,856.571 887,845.5C 885.89,839.574 886.556,833.908 889,828.5C 903.37,812.732 921.203,804.065 942.5,802.5C 960.549,802.77 974.382,810.437 984,825.5C 996.157,850.126 1003.66,876.126 1006.5,903.5C 1004.34,923.942 1001.34,944.276 997.5,964.5C 997.85,968.565 998.517,972.565 999.5,976.5C 1001.2,976.66 1002.87,976.494 1004.5,976C 1005.55,974.615 1006.88,973.615 1008.5,973C 1016.22,963.946 1024.55,955.612 1033.5,948C 1040.57,943.268 1047.91,938.935 1055.5,935C 1070.36,932.973 1084.03,935.973 1096.5,944C 1101.46,949.411 1105.29,955.578 1108,962.5C 1111.17,979.519 1114.34,996.519 1117.5,1013.5C 1117.93,1026.79 1114.76,1039.12 1108,1050.5C 1093.34,1065.09 1076.5,1076.59 1057.5,1085C 1049.72,1087.72 1042.06,1090.72 1034.5,1094C 1001.98,1101.64 969.484,1109.14 937,1116.5C 931.871,1116.48 927.038,1115.31 922.5,1113C 918.271,1108.69 913.938,1104.53 909.5,1100.5C 901.009,1109 891.675,1116.33 881.5,1122.5 Z M 856.5,1049.5 C 856.808,1053.36 857.475,1057.03 858.5,1060.5C 852.401,1062.02 846.068,1062.85 839.5,1063C 831.32,1063.32 823.154,1063.82 815,1064.5C 813.076,1064.42 811.243,1064.09 809.5,1063.5C 809.313,1061.44 808.813,1059.44 808,1057.5C 806.334,1060 804.5,1062.33 802.5,1064.5C 792.13,1063.41 781.797,1061.91 771.5,1060C 765.817,1059.31 760.484,1057.81 755.5,1055.5C 756.833,1050.83 756.833,1046.17 755.5,1041.5C 775.956,1043.65 796.622,1046.15 817.5,1049C 830.577,1049.08 843.577,1049.24 856.5,1049.5 Z"/></g>
<g><path style="opacity:0.027" fill="#3fb9d8" d="M 1066.5,784.5 C 1068.75,785.455 1071.08,786.122 1073.5,786.5C 1074.17,787.267 1075.01,787.934 1076,788.5C 1076.85,791.56 1077.85,794.56 1079,797.5C 1107.78,815.015 1125.78,840.348 1133,873.5C 1134.03,876.239 1135.53,878.572 1137.5,880.5C 1137.5,882.167 1137.5,883.833 1137.5,885.5C 1134.39,886.413 1131.39,887.246 1128.5,888C 1123.83,882.667 1119.17,877.333 1114.5,872C 1115.76,871.077 1117.09,870.243 1118.5,869.5C 1119.71,868.28 1119.71,867.113 1118.5,866C 1127.06,864.834 1129.23,860.667 1125,853.5C 1109.37,834.871 1093.37,816.537 1077,798.5C 1073.67,793.673 1070.17,789.007 1066.5,784.5 Z"/></g>
<g><path style="opacity:0.012" fill="#59c1c3" d="M 1118.5,822.5 C 1119.17,824.167 1119.83,825.833 1120.5,827.5C 1131.5,844.163 1138.17,862.496 1140.5,882.5C 1136.56,859.608 1127.39,838.942 1113,820.5C 1109.96,817.296 1106.8,814.296 1103.5,811.5C 1116.37,825.883 1126.2,842.217 1133,860.5C 1134.8,865.708 1135.97,871.041 1136.5,876.5C 1128.69,842.207 1110.02,815.54 1080.5,796.5C 1082.89,796.501 1085.22,797.501 1087.5,799.5C 1087.83,799.333 1088.17,799.167 1088.5,799C 1087.27,797.595 1085.94,796.429 1084.5,795.5C 1083.03,794.416 1082.19,793.082 1082,791.5C 1095.56,800.227 1107.72,810.56 1118.5,822.5 Z"/></g>
<g><path style="opacity:0.012" fill="#55aaff" d="M 1103.5,811.5 C 1100.44,809.949 1097.77,807.782 1095.5,805C 1098.8,806.114 1101.47,808.281 1103.5,811.5 Z"/></g>
<g><path style="opacity:0.008" fill="#2c81af" d="M 1078.5,782.5 C 1079.09,784.84 1080.09,787.007 1081.5,789C 1094.47,796.304 1105.97,805.471 1116,816.5C 1116.66,818.628 1117.49,820.628 1118.5,822.5C 1107.72,810.56 1095.56,800.227 1082,791.5C 1082.19,793.082 1083.03,794.416 1084.5,795.5C 1080.47,795.33 1079.13,793.496 1080.5,790C 1079.36,788.855 1078.36,787.688 1077.5,786.5C 1077.32,785.305 1076.99,784.138 1076.5,783C 1076.68,781.316 1077.35,781.15 1078.5,782.5 Z"/></g>
<g><path style="opacity:0.004" fill="#000000" d="M 446.5,809.5 C 445.833,810.833 444.833,811.833 443.5,812.5C 443.5,810.5 444.5,809.5 446.5,809.5 Z"/></g>
<g><path style="opacity:0.012" fill="#4fa2f9" d="M 1103.5,811.5 C 1106.8,814.296 1109.96,817.296 1113,820.5C 1127.39,838.942 1136.56,859.608 1140.5,882.5C 1141.45,880.576 1141.45,877.242 1140.5,872.5C 1142.14,877.234 1142.81,882.234 1142.5,887.5C 1140.95,886.559 1139.28,885.893 1137.5,885.5C 1137.5,883.833 1137.5,882.167 1137.5,880.5C 1137.77,878.901 1137.43,877.568 1136.5,876.5C 1135.97,871.041 1134.8,865.708 1133,860.5C 1126.2,842.217 1116.37,825.883 1103.5,811.5 Z"/></g>
<g><path style="opacity:0.983" fill="#144ece" d="M 966.5,819.5 C 963.048,819.82 959.715,819.82 956.5,819.5C 955.304,819.846 955.304,820.346 956.5,821C 946.73,822.924 937.063,825.257 927.5,828C 921.679,831.747 915.012,834.914 907.5,837.5C 907.705,834.012 908.539,830.679 910,827.5C 923.054,813.278 938.887,808.778 957.5,814C 960.898,815.357 963.898,817.19 966.5,819.5 Z"/></g>
<g><path style="opacity:0.986" fill="#195ccf" d="M 966.5,819.5 C 968.5,820.833 970.167,822.5 971.5,824.5C 949.327,826.969 928.327,833.636 908.5,844.5C 908.007,842.194 907.674,839.861 907.5,837.5C 915.012,834.914 921.679,831.747 927.5,828C 937.063,825.257 946.73,822.924 956.5,821C 955.304,820.346 955.304,819.846 956.5,819.5C 959.715,819.82 963.048,819.82 966.5,819.5 Z"/></g>
<g><path style="opacity:0.008" fill="#4c80ff" d="M 1118.5,822.5 C 1121.6,825.275 1123.94,828.608 1125.5,832.5C 1124.06,830.64 1122.39,828.973 1120.5,827.5C 1119.83,825.833 1119.17,824.167 1118.5,822.5 Z"/></g>
<g><path style="opacity:0.991" fill="#206bd1" d="M 971.5,824.5 C 973.192,826.205 974.525,828.205 975.5,830.5C 955.468,832.521 936.468,838.021 918.5,847C 916.253,848.277 914.253,849.777 912.5,851.5C 910.929,849.365 909.596,847.032 908.5,844.5C 928.327,833.636 949.327,826.969 971.5,824.5 Z"/></g>
<g><path style="opacity:0.008" fill="#7efcfc" d="M 1120.5,827.5 C 1122.39,828.973 1124.06,830.64 1125.5,832.5C 1127.58,837 1129.92,841.334 1132.5,845.5C 1135.6,854.469 1138.27,863.469 1140.5,872.5C 1141.45,877.242 1141.45,880.576 1140.5,882.5C 1138.17,862.496 1131.5,844.163 1120.5,827.5 Z"/></g>
<g><path style="opacity:0.994" fill="#2577d2" d="M 975.5,830.5 C 977.065,832.509 978.065,834.843 978.5,837.5C 955.589,839.137 934.255,845.804 914.5,857.5C 913.637,855.579 912.971,853.579 912.5,851.5C 914.253,849.777 916.253,848.277 918.5,847C 936.468,838.021 955.468,832.521 975.5,830.5 Z"/></g>
<g><path style="opacity:0.008" fill="#3e80ff" d="M 1125.5,832.5 C 1129.12,836.071 1131.45,840.404 1132.5,845.5C 1129.92,841.334 1127.58,837 1125.5,832.5 Z"/></g>
<g><path style="opacity:0.004" fill="#160a27" d="M 1140.5,840.5 C 1142.29,842.426 1143.29,844.759 1143.5,847.5C 1142.83,846.833 1142.17,846.167 1141.5,845.5C 1140.66,845.158 1140.33,844.492 1140.5,843.5C 1140.5,842.5 1140.5,841.5 1140.5,840.5 Z"/></g>
<g><path style="opacity:0.739" fill="#0021c9" d="M 631.5,870.5 C 609.733,870.661 587.566,871.995 565,874.5C 556.792,874.085 548.292,874.085 539.5,874.5C 539.395,870.313 540.228,866.313 542,862.5C 554.12,848.439 569.454,840.439 588,838.5C 608.459,840.987 622.959,851.654 631.5,870.5 Z"/></g>
<g><path style="opacity:0.004" fill="#0000ff" d="M 1141.5,845.5 C 1142.17,846.167 1142.83,846.833 1143.5,847.5C 1147.23,858.203 1149.56,869.203 1150.5,880.5C 1150.61,882.109 1150.28,883.775 1149.5,885.5C 1148.65,878.985 1147.81,872.319 1147,865.5C 1145.26,858.786 1143.43,852.12 1141.5,845.5 Z"/></g>
<g><path style="opacity:0.004" fill="#12061c" d="M 1143.5,847.5 C 1148.56,858.128 1151.23,869.462 1151.5,881.5C 1151.6,885.697 1150.94,889.031 1149.5,891.5C 1149.5,889.5 1149.5,887.5 1149.5,885.5C 1150.28,883.775 1150.61,882.109 1150.5,880.5C 1149.56,869.203 1147.23,858.203 1143.5,847.5 Z"/></g>
<g><path style="opacity:0.016" fill="#3aa7e3" d="M 1073.5,786.5 C 1074.17,786.5 1074.83,786.5 1075.5,786.5C 1076.17,786.5 1076.83,786.5 1077.5,786.5C 1078.36,787.688 1079.36,788.855 1080.5,790C 1079.13,793.496 1080.47,795.33 1084.5,795.5C 1085.94,796.429 1087.27,797.595 1088.5,799C 1088.17,799.167 1087.83,799.333 1087.5,799.5C 1085.22,797.501 1082.89,796.501 1080.5,796.5C 1110.02,815.54 1128.69,842.207 1136.5,876.5C 1137.43,877.568 1137.77,878.901 1137.5,880.5C 1135.53,878.572 1134.03,876.239 1133,873.5C 1125.78,840.348 1107.78,815.015 1079,797.5C 1077.85,794.56 1076.85,791.56 1076,788.5C 1075.01,787.934 1074.17,787.267 1073.5,786.5 Z"/></g>
<g><path style="opacity:0.996" fill="#2a84d3" d="M 978.5,837.5 C 980.07,840.314 981.403,843.314 982.5,846.5C 958.49,845.773 937.49,852.44 919.5,866.5C 917.595,863.696 915.929,860.696 914.5,857.5C 934.255,845.804 955.589,839.137 978.5,837.5 Z"/></g>
<g><path style="opacity:0.996" fill="#2f90d4" d="M 982.5,846.5 C 984.029,849.754 985.362,853.087 986.5,856.5C 975.354,856.273 964.021,857.439 952.5,860C 949.333,861.833 946.167,863.667 943,865.5C 942.586,865.043 942.086,864.709 941.5,864.5C 939.167,865.667 936.833,866.833 934.5,868C 930.957,871.049 927.291,873.882 923.5,876.5C 921.597,873.47 920.263,870.137 919.5,866.5C 937.49,852.44 958.49,845.773 982.5,846.5 Z"/></g>
<g><path style="opacity:1" fill="#d8bd8c" d="M 757.5,855.5 C 758.5,855.5 759.5,855.5 760.5,855.5C 759.754,859.31 758.754,859.31 757.5,855.5 Z"/></g>
<g><path style="opacity:0.008" fill="#4580ff" d="M 1132.5,845.5 C 1137.16,853.813 1139.82,862.813 1140.5,872.5C 1138.27,863.469 1135.6,854.469 1132.5,845.5 Z"/></g>
<g><path style="opacity:0.004" fill="#1c0ab6" d="M 709.5,860.5 C 714.316,863.748 718.982,867.248 723.5,871C 716.974,868.419 710.307,865.752 703.5,863C 705.723,862.434 707.723,861.6 709.5,860.5 Z"/></g>
<g><path style="opacity:0.995" fill="#359dd6" d="M 986.5,856.5 C 987.681,861.56 989.015,866.56 990.5,871.5C 988.583,870.254 986.75,869.587 985,869.5C 983.42,871.797 981.42,872.131 979,870.5C 966.692,872.367 954.859,875.7 943.5,880.5C 943.649,881.552 943.483,882.552 943,883.5C 939.431,885.329 936.265,887.662 933.5,890.5C 932.192,893.464 930.192,895.797 927.5,897.5C 926.328,890.476 924.994,883.476 923.5,876.5C 927.291,873.882 930.957,871.049 934.5,868C 936.833,866.833 939.167,865.667 941.5,864.5C 942.086,864.709 942.586,865.043 943,865.5C 946.167,863.667 949.333,861.833 952.5,860C 964.021,857.439 975.354,856.273 986.5,856.5 Z"/></g>
<g><path style="opacity:0.713" fill="#012aca" d="M 631.5,870.5 C 633.61,875.273 634.944,880.273 635.5,885.5C 605.976,886.717 576.31,888.717 546.5,891.5C 542.245,886.653 539.912,880.987 539.5,874.5C 548.292,874.085 556.792,874.085 565,874.5C 587.566,871.995 609.733,870.661 631.5,870.5 Z"/></g>
<g><path style="opacity:0.035" fill="#001bc6" d="M 516.5,872.5 C 517.833,873.167 517.833,873.167 516.5,872.5 Z"/></g>
<g><path style="opacity:0.99" fill="#39a9d6" d="M 990.5,871.5 C 991.911,879.554 993.577,887.554 995.5,895.5C 993.484,894.514 992.151,892.847 991.5,890.5C 984.745,891.754 977.745,892.92 970.5,894C 967,895.276 963.833,897.109 961,899.5C 957.698,900.365 954.698,902.365 952,905.5C 952,907.5 952,909.5 952,911.5C 951,912.167 950,912.833 949,913.5C 948.737,917.771 946.737,919.771 943,919.5C 942.439,922.29 941.106,924.623 939,926.5C 938.667,928.5 938.333,930.5 938,932.5C 937.667,932.167 937.333,931.833 937,931.5C 935.378,933.149 933.712,935.482 932,938.5C 930.844,937.007 930.01,937.174 929.5,939C 932.2,940.832 931.867,941.999 928.5,942.5C 927.859,941.518 927.193,940.518 926.5,939.5C 926.472,925.554 926.805,911.554 927.5,897.5C 930.192,895.797 932.192,893.464 933.5,890.5C 936.265,887.662 939.431,885.329 943,883.5C 943.483,882.552 943.649,881.552 943.5,880.5C 954.859,875.7 966.692,872.367 979,870.5C 981.42,872.131 983.42,871.797 985,869.5C 986.75,869.587 988.583,870.254 990.5,871.5 Z"/></g>
<g><path style="opacity:0.004" fill="#210dc0" d="M 796.5,879.5 C 795.85,881.435 795.517,883.435 795.5,885.5C 794.596,884.791 794.263,883.791 794.5,882.5C 794.285,880.821 794.952,879.821 796.5,879.5 Z"/></g>
<g><path style="opacity:0.004" fill="#33ecf5" d="M 796.5,879.5 C 799.603,881.384 802.937,882.718 806.5,883.5C 803.026,884.525 799.36,885.192 795.5,885.5C 795.517,883.435 795.85,881.435 796.5,879.5 Z"/></g>
<g><path style="opacity:0.008" fill="#0116eb" d="M 667.5,882.5 C 668.525,882.897 668.692,883.563 668,884.5C 667.536,883.906 667.369,883.239 667.5,882.5 Z"/></g>
<g><path style="opacity:1" fill="#f5cb00" d="M 814.5,889.5 C 868.427,888.861 907.26,912.528 931,960.5C 942.334,988.835 943.334,1017.5 934,1046.5C 931.191,1042.39 928.025,1038.56 924.5,1035C 915.761,1029.27 906.761,1023.94 897.5,1019C 900.089,1015.4 900.089,1011.74 897.5,1008C 880.507,997.388 862.507,995.054 843.5,1001C 837.945,1003.72 833.945,1007.89 831.5,1013.5C 832.253,1015.75 833.586,1017.59 835.5,1019C 843.138,1018.01 850.805,1016.85 858.5,1015.5C 864.812,1016.26 871.145,1016.59 877.5,1016.5C 876.968,1022.15 876.635,1027.82 876.5,1033.5C 860.579,1035.82 844.579,1037.49 828.5,1038.5C 803.891,1038.22 779.557,1035.55 755.5,1030.5C 756.004,1024.45 756.837,1018.45 758,1012.5C 770.098,1013.12 782.098,1015.45 794,1019.5C 802.463,1016.89 803.63,1012.39 797.5,1006C 778.292,991.382 758.792,990.882 739,1004.5C 736.572,1008.02 737.072,1010.85 740.5,1013C 732.5,1017.67 724.5,1022.33 716.5,1027C 711.167,1031 706.5,1035.67 702.5,1041C 701.668,1041.69 701.002,1041.52 700.5,1040.5C 690.561,982.536 710.561,937.703 760.5,906C 777.479,896.726 795.479,891.226 814.5,889.5 Z"/></g>
<g><path style="opacity:0.97" fill="#3cb2d7" d="M 995.5,895.5 C 995.666,903.84 995.5,912.173 995,920.5C 992.12,935.281 989.62,950.115 987.5,965C 986.877,973.658 989.21,981.325 994.5,988C 999.327,990.147 1003.99,989.814 1008.5,987C 1017.5,979.333 1025.83,971 1033.5,962C 1041,956.751 1048.66,951.751 1056.5,947C 1067.66,944.615 1077.99,946.449 1087.5,952.5C 1086.55,953.452 1085.55,954.452 1084.5,955.5C 1080.55,956.312 1077.05,957.978 1074,960.5C 1073.67,960.167 1073.33,959.833 1073,959.5C 1071.81,960.563 1071.31,961.897 1071.5,963.5C 1069.61,963.297 1068.11,963.963 1067,965.5C 1066.67,965.167 1066.33,964.833 1066,964.5C 1064.96,966.585 1063.46,968.252 1061.5,969.5C 1060.83,969.167 1060.17,968.833 1059.5,968.5C 1058.12,971.613 1056.12,973.28 1053.5,973.5C 1052.72,974.729 1052.22,976.062 1052,977.5C 1051.58,976.328 1050.91,975.328 1050,974.5C 1049.03,976.392 1048.36,978.392 1048,980.5C 1047.67,979.833 1047.33,979.167 1047,978.5C 1046,979.5 1045,980.5 1044,981.5C 1043.67,980.833 1043.33,980.167 1043,979.5C 1041.41,981.67 1040.08,984.004 1039,986.5C 1038.33,985.833 1037.67,985.167 1037,984.5C 1036.33,985.833 1035.67,987.167 1035,988.5C 1034.69,987.692 1034.19,987.025 1033.5,986.5C 1031.27,988.435 1028.94,990.268 1026.5,992C 1026.83,992.333 1027.17,992.667 1027.5,993C 1024.31,993.889 1021.15,994.722 1018,995.5C 1017.67,995.167 1017.33,994.833 1017,994.5C 1016.52,995.448 1016.35,996.448 1016.5,997.5C 1009.88,998.266 1003.38,999.599 997,1001.5C 994.922,1000.48 993.255,1001.15 992,1003.5C 987.339,1002.51 983.172,1001.18 979.5,999.5C 978.833,1000.17 978.167,1000.83 977.5,1001.5C 976.549,1000.67 975.549,1000.51 974.5,1001C 975.696,1001.65 975.696,1002.15 974.5,1002.5C 972.289,1001.88 970.289,1000.88 968.5,999.5C 967.094,1000.95 965.594,1002.28 964,1003.5C 962.488,1001.04 961.154,1001.04 960,1003.5C 958.863,1002.64 957.53,1001.64 956,1000.5C 955.333,1001.17 954.667,1001.83 954,1002.5C 951.46,1001.28 948.96,1001.61 946.5,1003.5C 945.364,981.756 939.364,961.423 928.5,942.5C 931.867,941.999 932.2,940.832 929.5,939C 930.01,937.174 930.844,937.007 932,938.5C 933.712,935.482 935.378,933.149 937,931.5C 937.333,931.833 937.667,932.167 938,932.5C 938.333,930.5 938.667,928.5 939,926.5C 941.106,924.623 942.439,922.29 943,919.5C 946.737,919.771 948.737,917.771 949,913.5C 950,912.833 951,912.167 952,911.5C 952,909.5 952,907.5 952,905.5C 954.698,902.365 957.698,900.365 961,899.5C 963.833,897.109 967,895.276 970.5,894C 977.745,892.92 984.745,891.754 991.5,890.5C 992.151,892.847 993.484,894.514 995.5,895.5 Z"/></g>
<g><path style="opacity:0.682" fill="#0339cb" d="M 635.5,885.5 C 636.593,889.394 637.26,893.394 637.5,897.5C 609.394,898.365 581.394,900.365 553.5,903.5C 551.167,899.5 548.833,895.5 546.5,891.5C 576.31,888.717 605.976,886.717 635.5,885.5 Z"/></g>
<g><path style="opacity:0.004" fill="#0a0ef6" d="M 739.5,895.5 C 740.485,899.26 741.151,903.093 741.5,907C 741.959,909.96 740.959,912.126 738.5,913.5C 738.5,912.5 738.5,911.5 738.5,910.5C 738.5,909.5 738.5,908.5 738.5,907.5C 739.473,905.932 739.64,904.265 739,902.5C 737.315,900.983 735.815,899.316 734.5,897.5C 735.85,896.05 737.516,895.383 739.5,895.5 Z"/></g>
<g><path style="opacity:0.669" fill="#0647cb" d="M 637.5,897.5 C 637.5,901.833 637.5,906.167 637.5,910.5C 628.958,910.765 620.458,911.431 612,912.5C 595.46,914.035 578.627,915.702 561.5,917.5C 558.343,913.194 555.676,908.528 553.5,903.5C 581.394,900.365 609.394,898.365 637.5,897.5 Z"/></g>
<g><path style="opacity:0.008" fill="#189494" d="M 738.5,907.5 C 738.5,908.5 738.5,909.5 738.5,910.5C 735.833,909.5 735.833,908.5 738.5,907.5 Z"/></g>
<g><path style="opacity:0.004" fill="#0902ea" d="M 434.5,911.5 C 435.833,911.5 437.167,911.5 438.5,911.5C 437.999,923.063 436.332,923.729 433.5,913.5C 433.863,912.817 434.196,912.15 434.5,911.5 Z"/></g>
<g><path style="opacity:0.659" fill="#0958cc" d="M 637.5,910.5 C 637.5,913.167 637.5,915.833 637.5,918.5C 612.982,920.319 588.649,922.653 564.5,925.5C 563.129,923.064 562.129,920.397 561.5,917.5C 578.627,915.702 595.46,914.035 612,912.5C 620.458,911.431 628.958,910.765 637.5,910.5 Z"/></g>
<g><path style="opacity:0.659" fill="#0b64cc" d="M 637.5,918.5 C 637.806,921.385 637.473,924.052 636.5,926.5C 630.594,927.935 624.594,929.102 618.5,930C 601.092,931.337 583.426,932.837 565.5,934.5C 564.841,931.545 564.508,928.545 564.5,925.5C 588.649,922.653 612.982,920.319 637.5,918.5 Z"/></g>
<g><path style="opacity:0.67" fill="#0e71cd" d="M 636.5,926.5 C 636.54,929.881 636.207,933.214 635.5,936.5C 615.988,939.226 595.655,942.559 574.5,946.5C 571.821,946.142 569.155,945.809 566.5,945.5C 566.276,941.821 565.942,938.154 565.5,934.5C 583.426,932.837 601.092,931.337 618.5,930C 624.594,929.102 630.594,927.935 636.5,926.5 Z"/></g>
<g><path style="opacity:0.695" fill="#107dcd" d="M 635.5,936.5 C 634.172,940.818 632.839,945.151 631.5,949.5C 618.49,951.612 605.49,953.779 592.5,956C 589.24,956.784 586.073,956.617 583,955.5C 577.37,957.527 571.537,958.861 565.5,959.5C 566.229,954.87 566.563,950.203 566.5,945.5C 569.155,945.809 571.821,946.142 574.5,946.5C 595.655,942.559 615.988,939.226 635.5,936.5 Z"/></g>
<g><path style="opacity:0.952" fill="#39abd6" d="M 1087.5,952.5 C 1090.2,954.234 1092.2,956.568 1093.5,959.5C 1092.25,959.577 1091.42,960.244 1091,961.5C 1090.67,961.167 1090.33,960.833 1090,960.5C 1089.33,961.833 1088.67,963.167 1088,964.5C 1087.67,963.833 1087.33,963.167 1087,962.5C 1085.76,964.833 1084.09,965.5 1082,964.5C 1079.63,967.206 1076.96,969.539 1074,971.5C 1069.41,973.725 1065.41,977.391 1062,982.5C 1058.42,982.68 1055.75,984.68 1054,988.5C 1051.77,987.701 1050.44,988.701 1050,991.5C 1048.93,990.72 1047.76,990.887 1046.5,992C 1044.66,995.178 1042.5,997.345 1040,998.5C 1039.59,998.043 1039.09,997.709 1038.5,997.5C 1035.81,1001.02 1032.65,1004.02 1029,1006.5C 1028.44,1005.98 1027.77,1005.64 1027,1005.5C 1023.55,1007.47 1020.05,1009.31 1016.5,1011C 1015.1,1011.59 1013.77,1011.43 1012.5,1010.5C 1011.3,1010.85 1011.3,1011.35 1012.5,1012C 1005.97,1013.58 999.64,1014.58 993.5,1015C 993,1015.5 992.5,1016 992,1016.5C 988.805,1015.13 985.472,1014.13 982,1013.5C 980.765,1014.62 979.598,1014.62 978.5,1013.5C 977.522,1013.98 976.689,1014.64 976,1015.5C 974.938,1014.1 973.605,1013.1 972,1012.5C 969.207,1013.34 966.207,1013.67 963,1013.5C 961.166,1011.24 959.499,1011.24 958,1013.5C 954.918,1012.92 951.585,1012.92 948,1013.5C 946.97,1013.16 946.47,1012.5 946.5,1011.5C 946.5,1008.83 946.5,1006.17 946.5,1003.5C 948.96,1001.61 951.46,1001.28 954,1002.5C 954.667,1001.83 955.333,1001.17 956,1000.5C 957.53,1001.64 958.863,1002.64 960,1003.5C 961.154,1001.04 962.488,1001.04 964,1003.5C 965.594,1002.28 967.094,1000.95 968.5,999.5C 970.289,1000.88 972.289,1001.88 974.5,1002.5C 975.696,1002.15 975.696,1001.65 974.5,1001C 975.549,1000.51 976.549,1000.67 977.5,1001.5C 978.167,1000.83 978.833,1000.17 979.5,999.5C 983.172,1001.18 987.339,1002.51 992,1003.5C 993.255,1001.15 994.922,1000.48 997,1001.5C 1003.38,999.599 1009.88,998.266 1016.5,997.5C 1016.35,996.448 1016.52,995.448 1017,994.5C 1017.33,994.833 1017.67,995.167 1018,995.5C 1021.15,994.722 1024.31,993.889 1027.5,993C 1027.17,992.667 1026.83,992.333 1026.5,992C 1028.94,990.268 1031.27,988.435 1033.5,986.5C 1034.19,987.025 1034.69,987.692 1035,988.5C 1035.67,987.167 1036.33,985.833 1037,984.5C 1037.67,985.167 1038.33,985.833 1039,986.5C 1040.08,984.004 1041.41,981.67 1043,979.5C 1043.33,980.167 1043.67,980.833 1044,981.5C 1045,980.5 1046,979.5 1047,978.5C 1047.33,979.167 1047.67,979.833 1048,980.5C 1048.36,978.392 1049.03,976.392 1050,974.5C 1050.91,975.328 1051.58,976.328 1052,977.5C 1052.22,976.062 1052.72,974.729 1053.5,973.5C 1056.12,973.28 1058.12,971.613 1059.5,968.5C 1060.17,968.833 1060.83,969.167 1061.5,969.5C 1063.46,968.252 1064.96,966.585 1066,964.5C 1066.33,964.833 1066.67,965.167 1067,965.5C 1068.11,963.963 1069.61,963.297 1071.5,963.5C 1071.31,961.897 1071.81,960.563 1073,959.5C 1073.33,959.833 1073.67,960.167 1074,960.5C 1077.05,957.978 1080.55,956.312 1084.5,955.5C 1085.55,954.452 1086.55,953.452 1087.5,952.5 Z"/></g>
<g><path style="opacity:0.706" fill="#148ace" d="M 631.5,949.5 C 629.808,954.248 628.142,958.914 626.5,963.5C 613.558,965.513 600.558,967.346 587.5,969C 587.833,969.333 588.167,969.667 588.5,970C 587.234,970.309 586.067,970.809 585,971.5C 579.759,970.699 574.759,971.699 570,974.5C 567.168,973.214 564.335,973.214 561.5,974.5C 562.431,969.376 563.765,964.376 565.5,959.5C 571.537,958.861 577.37,957.527 583,955.5C 586.073,956.617 589.24,956.784 592.5,956C 605.49,953.779 618.49,951.612 631.5,949.5 Z"/></g>
<g><path style="opacity:0.931" fill="#36a3d5" d="M 1093.5,959.5 C 1095.11,962.378 1096.44,965.378 1097.5,968.5C 1091.65,972.053 1086.48,976.386 1082,981.5C 1081.67,981.167 1081.33,980.833 1081,980.5C 1079.93,981.191 1078.77,981.691 1077.5,982C 1076.17,982.667 1076.17,983.333 1077.5,984C 1074.63,986.537 1072.13,989.37 1070,992.5C 1066.35,995.64 1062.52,998.64 1058.5,1001.5C 1055.39,1005.38 1052.06,1008.88 1048.5,1012C 1046.14,1012.2 1044.47,1013.36 1043.5,1015.5C 1042.91,1015.29 1042.41,1014.96 1042,1014.5C 1039.88,1017.32 1037.38,1019.82 1034.5,1022C 1023.17,1027.79 1011.34,1030.95 999,1031.5C 998.667,1032.17 998.333,1032.83 998,1033.5C 993.469,1032.78 988.969,1031.78 984.5,1030.5C 978.857,1030.86 973.357,1030.86 968,1030.5C 966.477,1028.38 964.644,1028.05 962.5,1029.5C 961.167,1028.5 959.833,1027.5 958.5,1026.5C 957.808,1027.03 957.308,1027.69 957,1028.5C 956.323,1026.31 955.156,1025.98 953.5,1027.5C 950.35,1027.23 947.683,1026.23 945.5,1024.5C 945.182,1019.97 945.515,1015.63 946.5,1011.5C 946.47,1012.5 946.97,1013.16 948,1013.5C 951.585,1012.92 954.918,1012.92 958,1013.5C 959.499,1011.24 961.166,1011.24 963,1013.5C 966.207,1013.67 969.207,1013.34 972,1012.5C 973.605,1013.1 974.938,1014.1 976,1015.5C 976.689,1014.64 977.522,1013.98 978.5,1013.5C 979.598,1014.62 980.765,1014.62 982,1013.5C 985.472,1014.13 988.805,1015.13 992,1016.5C 992.5,1016 993,1015.5 993.5,1015C 999.64,1014.58 1005.97,1013.58 1012.5,1012C 1011.3,1011.35 1011.3,1010.85 1012.5,1010.5C 1013.77,1011.43 1015.1,1011.59 1016.5,1011C 1020.05,1009.31 1023.55,1007.47 1027,1005.5C 1027.77,1005.64 1028.44,1005.98 1029,1006.5C 1032.65,1004.02 1035.81,1001.02 1038.5,997.5C 1039.09,997.709 1039.59,998.043 1040,998.5C 1042.5,997.345 1044.66,995.178 1046.5,992C 1047.76,990.887 1048.93,990.72 1050,991.5C 1050.44,988.701 1051.77,987.701 1054,988.5C 1055.75,984.68 1058.42,982.68 1062,982.5C 1065.41,977.391 1069.41,973.725 1074,971.5C 1076.96,969.539 1079.63,967.206 1082,964.5C 1084.09,965.5 1085.76,964.833 1087,962.5C 1087.33,963.167 1087.67,963.833 1088,964.5C 1088.67,963.167 1089.33,961.833 1090,960.5C 1090.33,960.833 1090.67,961.167 1091,961.5C 1091.42,960.244 1092.25,959.577 1093.5,959.5 Z"/></g>
<g><path style="opacity:1" fill="#000000" d="M 757.5,968.5 C 760.518,968.335 763.518,968.502 766.5,969C 768.325,970.466 768.825,972.299 768,974.5C 752.012,984.158 737.512,995.658 724.5,1009C 721.735,1009.25 720.068,1007.92 719.5,1005C 720.127,1002.86 720.627,1000.7 721,998.5C 729.476,983.843 741.643,973.843 757.5,968.5 Z"/></g>
<g><path style="opacity:0.709" fill="#1697ce" d="M 626.5,963.5 C 623.393,972.929 621.393,982.595 620.5,992.5C 620.211,997.961 621.544,1002.96 624.5,1007.5C 598.751,1010.41 571.751,1014.41 543.5,1019.5C 548.847,1010.14 553.681,1000.47 558,990.5C 559.802,985.292 560.969,979.959 561.5,974.5C 564.335,973.214 567.168,973.214 570,974.5C 574.759,971.699 579.759,970.699 585,971.5C 586.067,970.809 587.234,970.309 588.5,970C 588.167,969.667 587.833,969.333 587.5,969C 600.558,967.346 613.558,965.513 626.5,963.5 Z"/></g>
<g><path style="opacity:1" fill="#010100" d="M 874.5,971.5 C 894.175,975.332 907.675,986.665 915,1005.5C 916.075,1011.43 913.908,1013.27 908.5,1011C 898.387,998.221 886.387,987.554 872.5,979C 869.759,975.711 870.425,973.211 874.5,971.5 Z"/></g>
<g><path style="opacity:0.973" fill="#3298d5" d="M 1097.5,968.5 C 1098.3,970.042 1098.63,971.708 1098.5,973.5C 1095.83,978.359 1091.83,981.525 1086.5,983C 1085.93,984.205 1085.26,985.372 1084.5,986.5C 1082.25,987.253 1080.41,988.586 1079,990.5C 1078.67,990.167 1078.33,989.833 1078,989.5C 1075.85,990.977 1074.52,992.977 1074,995.5C 1072.56,996.87 1070.89,997.87 1069,998.5C 1068.64,1000.42 1067.81,1002.09 1066.5,1003.5C 1064.15,1005 1061.81,1006.33 1059.5,1007.5C 1059.5,1008.83 1059.5,1010.17 1059.5,1011.5C 1054.68,1013.8 1050.51,1017.13 1047,1021.5C 1046.67,1021.17 1046.33,1020.83 1046,1020.5C 1042.89,1023.4 1039.56,1026.06 1036,1028.5C 1035.67,1028.17 1035.33,1027.83 1035,1027.5C 1028.71,1032.51 1021.21,1036.18 1012.5,1038.5C 1011.28,1038 1010.12,1037.67 1009,1037.5C 1008.33,1038.17 1007.67,1038.83 1007,1039.5C 1000.92,1039.2 994.751,1039.03 988.5,1039C 987.5,1038.5 986.5,1038 985.5,1037.5C 981.584,1038.34 977.751,1038.67 974,1038.5C 969.955,1036.35 965.622,1035.01 961,1034.5C 960.667,1034.83 960.333,1035.17 960,1035.5C 954.431,1034.74 948.931,1033.74 943.5,1032.5C 944.078,1029.72 944.745,1027.05 945.5,1024.5C 947.683,1026.23 950.35,1027.23 953.5,1027.5C 955.156,1025.98 956.323,1026.31 957,1028.5C 957.308,1027.69 957.808,1027.03 958.5,1026.5C 959.833,1027.5 961.167,1028.5 962.5,1029.5C 964.644,1028.05 966.477,1028.38 968,1030.5C 973.357,1030.86 978.857,1030.86 984.5,1030.5C 988.969,1031.78 993.469,1032.78 998,1033.5C 998.333,1032.83 998.667,1032.17 999,1031.5C 1011.34,1030.95 1023.17,1027.79 1034.5,1022C 1037.38,1019.82 1039.88,1017.32 1042,1014.5C 1042.41,1014.96 1042.91,1015.29 1043.5,1015.5C 1044.47,1013.36 1046.14,1012.2 1048.5,1012C 1052.06,1008.88 1055.39,1005.38 1058.5,1001.5C 1062.52,998.64 1066.35,995.64 1070,992.5C 1072.13,989.37 1074.63,986.537 1077.5,984C 1076.17,983.333 1076.17,982.667 1077.5,982C 1078.77,981.691 1079.93,981.191 1081,980.5C 1081.33,980.833 1081.67,981.167 1082,981.5C 1086.48,976.386 1091.65,972.053 1097.5,968.5 Z"/></g>
<g><path style="opacity:0.941" fill="#297fd2" d="M 1101.5,987.5 C 1101.5,989.5 1101.5,991.5 1101.5,993.5C 1100.88,993.389 1100.38,993.056 1100,992.5C 1084.72,1008.09 1068.89,1023.92 1052.5,1040C 1044.46,1045.7 1036.12,1051.03 1027.5,1056C 1022.31,1058.01 1016.97,1059.51 1011.5,1060.5C 1003,1060.48 994.504,1060.48 986,1060.5C 980.786,1059.79 975.786,1058.46 971,1056.5C 968.46,1057.88 966.46,1057.21 965,1054.5C 964.667,1054.83 964.333,1055.17 964,1055.5C 957.082,1053.62 950.082,1051.96 943,1050.5C 941.5,1050.67 940.667,1051.5 940.5,1053C 941.994,1055.64 942.661,1058.47 942.5,1061.5C 941.363,1058.38 940.029,1055.21 938.5,1052C 939.077,1050.1 939.744,1048.27 940.5,1046.5C 945.268,1046.52 949.934,1047.18 954.5,1048.5C 955.086,1048.29 955.586,1047.96 956,1047.5C 990.029,1061.35 1022.2,1056.85 1052.5,1034C 1064.23,1022.62 1075.23,1011.28 1085.5,1000C 1090.75,995.564 1096.09,991.397 1101.5,987.5 Z"/></g>
<g><path style="opacity:0.73" fill="#148cce" d="M 679.5,995.5 C 683.237,1002.1 685.904,1008.77 687.5,1015.5C 686.833,1015.83 686.167,1016.17 685.5,1016.5C 685.709,1017.09 686.043,1017.59 686.5,1018C 683.368,1019.63 680.368,1021.47 677.5,1023.5C 676.094,1022.33 674.928,1022.67 674,1024.5C 673.667,1024.17 673.333,1023.83 673,1023.5C 668.405,1024.86 663.738,1025.86 659,1026.5C 658.667,1026.17 658.333,1025.83 658,1025.5C 643.822,1027.56 629.822,1029.23 616,1030.5C 615.586,1030.04 615.086,1029.71 614.5,1029.5C 588.381,1032.75 562.048,1036.75 535.5,1041.5C 534.817,1041.14 534.15,1040.8 533.5,1040.5C 534.797,1036.92 536.463,1033.58 538.5,1030.5C 560.323,1027.2 582.49,1024.2 605,1021.5C 606.436,1021.56 607.769,1021.89 609,1022.5C 610.552,1021.03 612.386,1020.03 614.5,1019.5C 621.184,1020.13 628.018,1020.13 635,1019.5C 636.525,1018.28 638.359,1017.61 640.5,1017.5C 645.231,1017.16 649.898,1016.49 654.5,1015.5C 655.086,1015.71 655.586,1016.04 656,1016.5C 658.333,1015.5 660.667,1014.5 663,1013.5C 663.333,1014.17 663.667,1014.83 664,1015.5C 665.588,1013.19 667.588,1012.53 670,1013.5C 671.487,1012.75 671.654,1011.91 670.5,1011C 673.068,1009.87 674.402,1007.87 674.5,1005C 674.139,1002.55 673.472,1000.22 672.5,998C 673.056,997.617 673.389,997.117 673.5,996.5C 675.379,995.659 677.379,995.325 679.5,995.5 Z"/></g>
<g><path style="opacity:0.946" fill="#226dd1" d="M 1102.5,998.5 C 1103.45,999.919 1103.78,1001.59 1103.5,1003.5C 1102.79,1004.4 1101.79,1004.74 1100.5,1004.5C 1098.92,1008.67 1095.75,1012.34 1091,1015.5C 1083.39,1025.06 1075.56,1034.39 1067.5,1043.5C 1063.1,1046.61 1059.27,1050.27 1056,1054.5C 1049.97,1059.03 1043.14,1063.2 1035.5,1067C 1030.27,1069.35 1025.27,1071.18 1020.5,1072.5C 1018.59,1073.55 1016.76,1073.55 1015,1072.5C 1012.57,1074.02 1009.9,1075.02 1007,1075.5C 987.057,1075.93 968.224,1072.26 950.5,1064.5C 949.197,1065.72 948.197,1065.38 947.5,1063.5C 944.94,1066.64 942.94,1069.97 941.5,1073.5C 942.15,1071.56 942.483,1069.56 942.5,1067.5C 943.415,1064.55 944.915,1061.88 947,1059.5C 950.595,1061.36 954.262,1062.02 958,1061.5C 959.319,1063.49 961.152,1064.65 963.5,1065C 971.731,1067.24 980.064,1069.07 988.5,1070.5C 1010.54,1071.41 1030.87,1065.91 1049.5,1054C 1050.26,1052.49 1051.26,1051.15 1052.5,1050C 1056.11,1048.06 1059.44,1045.72 1062.5,1043C 1076.33,1027.83 1089.66,1012.99 1102.5,998.5 Z"/></g>
<g><path style="opacity:0.943" fill="#1f67d0" d="M 1103.5,1003.5 C 1104.45,1004.92 1104.78,1006.59 1104.5,1008.5C 1095.09,1016.92 1087.09,1026.59 1080.5,1037.5C 1072.76,1043.74 1065.42,1050.57 1058.5,1058C 1028.74,1081.43 996.24,1086.6 961,1073.5C 960.586,1073.96 960.086,1074.29 959.5,1074.5C 955.693,1072.4 951.86,1070.4 948,1068.5C 945.817,1070.91 943.65,1073.24 941.5,1075.5C 941.5,1074.83 941.5,1074.17 941.5,1073.5C 942.94,1069.97 944.94,1066.64 947.5,1063.5C 948.197,1065.38 949.197,1065.72 950.5,1064.5C 968.224,1072.26 987.057,1075.93 1007,1075.5C 1009.9,1075.02 1012.57,1074.02 1015,1072.5C 1016.76,1073.55 1018.59,1073.55 1020.5,1072.5C 1025.27,1071.18 1030.27,1069.35 1035.5,1067C 1043.14,1063.2 1049.97,1059.03 1056,1054.5C 1059.27,1050.27 1063.1,1046.61 1067.5,1043.5C 1075.56,1034.39 1083.39,1025.06 1091,1015.5C 1095.75,1012.34 1098.92,1008.67 1100.5,1004.5C 1101.79,1004.74 1102.79,1004.4 1103.5,1003.5 Z"/></g>
<g><path style="opacity:0.942" fill="#1d60d0" d="M 1104.5,1008.5 C 1105.4,1009.21 1105.74,1010.21 1105.5,1011.5C 1104.66,1012.64 1103.99,1013.97 1103.5,1015.5C 1100.94,1018.14 1098.27,1020.64 1095.5,1023C 1095.5,1024 1095.5,1025 1095.5,1026C 1087.31,1036.19 1078.31,1045.86 1068.5,1055C 1032.35,1087.51 992.182,1093.68 948,1073.5C 944.643,1074.91 941.809,1076.91 939.5,1079.5C 939.989,1078 940.655,1076.67 941.5,1075.5C 943.65,1073.24 945.817,1070.91 948,1068.5C 951.86,1070.4 955.693,1072.4 959.5,1074.5C 960.086,1074.29 960.586,1073.96 961,1073.5C 996.24,1086.6 1028.74,1081.43 1058.5,1058C 1065.42,1050.57 1072.76,1043.74 1080.5,1037.5C 1087.09,1026.59 1095.09,1016.92 1104.5,1008.5 Z"/></g>
<g><path style="opacity:0.939" fill="#1955ce" d="M 1105.5,1011.5 C 1105.73,1018.55 1105.23,1025.55 1104,1032.5C 1099.37,1041.8 1093.2,1049.97 1085.5,1057C 1069.53,1068.32 1052.2,1076.99 1033.5,1083C 1013.85,1087.16 994.184,1091.16 974.5,1095C 964.127,1095.8 953.793,1095.47 943.5,1094C 941.753,1090.67 939.42,1087.83 936.5,1085.5C 938.038,1083.76 939.038,1081.76 939.5,1079.5C 941.809,1076.91 944.643,1074.91 948,1073.5C 992.182,1093.68 1032.35,1087.51 1068.5,1055C 1078.31,1045.86 1087.31,1036.19 1095.5,1026C 1095.5,1025 1095.5,1024 1095.5,1023C 1098.27,1020.64 1100.94,1018.14 1103.5,1015.5C 1103.99,1013.97 1104.66,1012.64 1105.5,1011.5 Z"/></g>
<g><path style="opacity:0.718" fill="#1592ce" d="M 673.5,996.5 C 673.389,997.117 673.056,997.617 672.5,998C 673.472,1000.22 674.139,1002.55 674.5,1005C 674.402,1007.87 673.068,1009.87 670.5,1011C 671.654,1011.91 671.487,1012.75 670,1013.5C 667.588,1012.53 665.588,1013.19 664,1015.5C 663.667,1014.83 663.333,1014.17 663,1013.5C 660.667,1014.5 658.333,1015.5 656,1016.5C 655.586,1016.04 655.086,1015.71 654.5,1015.5C 649.898,1016.49 645.231,1017.16 640.5,1017.5C 638.359,1017.61 636.525,1018.28 635,1019.5C 628.018,1020.13 621.184,1020.13 614.5,1019.5C 612.386,1020.03 610.552,1021.03 609,1022.5C 607.769,1021.89 606.436,1021.56 605,1021.5C 582.49,1024.2 560.323,1027.2 538.5,1030.5C 539.895,1026.71 541.562,1023.04 543.5,1019.5C 571.751,1014.41 598.751,1010.41 624.5,1007.5C 628.596,1010.81 633.263,1011.97 638.5,1011C 649.049,1003.54 660.715,998.704 673.5,996.5 Z"/></g>
<g><path style="opacity:0.746" fill="#1385ce" d="M 692.5,1029.5 C 679.396,1034.76 666.229,1037.1 653,1036.5C 618.205,1039.18 583.539,1043.18 549,1048.5C 548.667,1048.17 548.333,1047.83 548,1047.5C 542.288,1048.86 536.454,1049.52 530.5,1049.5C 531.216,1046.4 532.216,1043.4 533.5,1040.5C 534.15,1040.8 534.817,1041.14 535.5,1041.5C 562.048,1036.75 588.381,1032.75 614.5,1029.5C 615.086,1029.71 615.586,1030.04 616,1030.5C 629.822,1029.23 643.822,1027.56 658,1025.5C 658.333,1025.83 658.667,1026.17 659,1026.5C 663.738,1025.86 668.405,1024.86 673,1023.5C 673.333,1023.83 673.667,1024.17 674,1024.5C 674.928,1022.67 676.094,1022.33 677.5,1023.5C 680.368,1021.47 683.368,1019.63 686.5,1018C 686.043,1017.59 685.709,1017.09 685.5,1016.5C 686.167,1016.17 686.833,1015.83 687.5,1015.5C 685.904,1008.77 683.237,1002.1 679.5,995.5C 684.926,994.037 689.259,995.704 692.5,1000.5C 691.248,1010.15 691.248,1019.81 692.5,1029.5 Z"/></g>
<g><path style="opacity:0.987" fill="#2d8ad3" d="M 1099.5,980.5 C 1100.27,982.715 1100.93,985.048 1101.5,987.5C 1096.09,991.397 1090.75,995.564 1085.5,1000C 1075.23,1011.28 1064.23,1022.62 1052.5,1034C 1022.2,1056.85 990.029,1061.35 956,1047.5C 955.586,1047.96 955.086,1048.29 954.5,1048.5C 949.934,1047.18 945.268,1046.52 940.5,1046.5C 941.323,1043.54 941.99,1040.54 942.5,1037.5C 944.674,1037.92 946.674,1037.92 948.5,1037.5C 949.517,1040.03 950.684,1040.03 952,1037.5C 952.667,1038.17 953.333,1038.83 954,1039.5C 956.667,1039.5 959.333,1039.5 962,1039.5C 968.154,1040.91 974.821,1042.58 982,1044.5C 986.422,1044.41 990.755,1044.07 995,1043.5C 995.804,1044.8 996.971,1045.47 998.5,1045.5C 1021.19,1044.55 1039.69,1035.55 1054,1018.5C 1055.07,1019.28 1056.24,1019.11 1057.5,1018C 1063.06,1012.52 1068.73,1007.19 1074.5,1002C 1078.2,995.971 1083.2,991.304 1089.5,988C 1091.66,983.803 1094.99,981.303 1099.5,980.5 Z"/></g>
<g><path style="opacity:0.965" fill="#2575d1" d="M 1101.5,993.5 C 1102.45,994.919 1102.78,996.585 1102.5,998.5C 1089.66,1012.99 1076.33,1027.83 1062.5,1043C 1059.44,1045.72 1056.11,1048.06 1052.5,1050C 1051.26,1051.15 1050.26,1052.49 1049.5,1054C 1030.87,1065.91 1010.54,1071.41 988.5,1070.5C 980.064,1069.07 971.731,1067.24 963.5,1065C 961.152,1064.65 959.319,1063.49 958,1061.5C 954.262,1062.02 950.595,1061.36 947,1059.5C 944.915,1061.88 943.415,1064.55 942.5,1067.5C 942.5,1065.5 942.5,1063.5 942.5,1061.5C 942.661,1058.47 941.994,1055.64 940.5,1053C 940.667,1051.5 941.5,1050.67 943,1050.5C 950.082,1051.96 957.082,1053.62 964,1055.5C 964.333,1055.17 964.667,1054.83 965,1054.5C 966.46,1057.21 968.46,1057.88 971,1056.5C 975.786,1058.46 980.786,1059.79 986,1060.5C 994.504,1060.48 1003,1060.48 1011.5,1060.5C 1016.97,1059.51 1022.31,1058.01 1027.5,1056C 1036.12,1051.03 1044.46,1045.7 1052.5,1040C 1068.89,1023.92 1084.72,1008.09 1100,992.5C 1100.38,993.056 1100.88,993.389 1101.5,993.5 Z"/></g>
<g><path style="opacity:0.979" fill="#8ed0fc" d="M 908.5,1029.5 C 895.314,1025.21 891.147,1029.55 896,1042.5C 896.334,1046.2 896.501,1049.7 896.5,1053C 893.917,1055.8 891.583,1058.8 889.5,1062C 888.056,1062.78 886.723,1062.61 885.5,1061.5C 885.058,1060.26 884.391,1059.26 883.5,1058.5C 882.368,1055.37 881.535,1052.04 881,1048.5C 880.695,1041.65 880.195,1034.82 879.5,1028C 880.779,1023.83 880.779,1019.66 879.5,1015.5C 879.577,1013.7 880.077,1012.03 881,1010.5C 889.449,1017.97 898.616,1024.3 908.5,1029.5 Z"/></g>
<g><path style="opacity:0.752" fill="#1180ce" d="M 692.5,1029.5 C 692.911,1033.22 693.578,1036.89 694.5,1040.5C 692.26,1041.97 689.76,1042.97 687,1043.5C 686.667,1043.17 686.333,1042.83 686,1042.5C 679.369,1043.77 672.703,1044.77 666,1045.5C 665.275,1044.94 664.442,1044.61 663.5,1044.5C 650.992,1045.69 638.825,1047.02 627,1048.5C 626.667,1048.17 626.333,1047.83 626,1047.5C 593.825,1051.33 560.992,1054.67 527.5,1057.5C 528.129,1054.6 529.129,1051.94 530.5,1049.5C 536.454,1049.52 542.288,1048.86 548,1047.5C 548.333,1047.83 548.667,1048.17 549,1048.5C 583.539,1043.18 618.205,1039.18 653,1036.5C 666.229,1037.1 679.396,1034.76 692.5,1029.5 Z"/></g>
<g><path style="opacity:1" fill="#d6bb8c" d="M 766.5,1040.5 C 765.833,1039.17 765.167,1039.17 764.5,1040.5C 761.811,1039.96 759.144,1039.3 756.5,1038.5C 755.353,1036.24 755.186,1033.9 756,1031.5C 776.318,1037.56 797.151,1040.73 818.5,1041C 832.186,1041.61 845.852,1041.28 859.5,1040C 865.264,1039.92 870.764,1038.75 876,1036.5C 876.495,1038.47 876.662,1040.47 876.5,1042.5C 854.926,1045.25 833.26,1046.08 811.5,1045C 796.485,1043.58 781.485,1042.08 766.5,1040.5 Z"/></g>
<g><path style="opacity:0.981" fill="#7ac6fb" d="M 745.5,1069.5 C 743.409,1069.68 741.409,1069.35 739.5,1068.5C 739.066,1063.61 738.233,1058.61 737,1053.5C 733.303,1054.64 732.803,1053.81 735.5,1051C 732.529,1050.53 729.862,1049.36 727.5,1047.5C 725.589,1044.88 723.255,1042.71 720.5,1041C 722.461,1036.24 724.795,1031.74 727.5,1027.5C 729.909,1026.3 731.909,1024.63 733.5,1022.5C 740.021,1017.98 746.521,1013.31 753,1008.5C 752.659,1026.93 750.992,1045.27 748,1063.5C 747.76,1065.85 746.927,1067.85 745.5,1069.5 Z"/></g>
<g><path style="opacity:0.992" fill="#3092d4" d="M 1098.5,973.5 C 1099.47,975.607 1099.8,977.941 1099.5,980.5C 1094.99,981.303 1091.66,983.803 1089.5,988C 1083.2,991.304 1078.2,995.971 1074.5,1002C 1068.73,1007.19 1063.06,1012.52 1057.5,1018C 1056.24,1019.11 1055.07,1019.28 1054,1018.5C 1039.69,1035.55 1021.19,1044.55 998.5,1045.5C 996.971,1045.47 995.804,1044.8 995,1043.5C 990.755,1044.07 986.422,1044.41 982,1044.5C 974.821,1042.58 968.154,1040.91 962,1039.5C 959.333,1039.5 956.667,1039.5 954,1039.5C 953.333,1038.83 952.667,1038.17 952,1037.5C 950.684,1040.03 949.517,1040.03 948.5,1037.5C 946.674,1037.92 944.674,1037.92 942.5,1037.5C 943.301,1035.96 943.634,1034.29 943.5,1032.5C 948.931,1033.74 954.431,1034.74 960,1035.5C 960.333,1035.17 960.667,1034.83 961,1034.5C 965.622,1035.01 969.955,1036.35 974,1038.5C 977.751,1038.67 981.584,1038.34 985.5,1037.5C 986.5,1038 987.5,1038.5 988.5,1039C 994.751,1039.03 1000.92,1039.2 1007,1039.5C 1007.67,1038.83 1008.33,1038.17 1009,1037.5C 1010.12,1037.67 1011.28,1038 1012.5,1038.5C 1021.21,1036.18 1028.71,1032.51 1035,1027.5C 1035.33,1027.83 1035.67,1028.17 1036,1028.5C 1039.56,1026.06 1042.89,1023.4 1046,1020.5C 1046.33,1020.83 1046.67,1021.17 1047,1021.5C 1050.51,1017.13 1054.68,1013.8 1059.5,1011.5C 1059.5,1010.17 1059.5,1008.83 1059.5,1007.5C 1061.81,1006.33 1064.15,1005 1066.5,1003.5C 1067.81,1002.09 1068.64,1000.42 1069,998.5C 1070.89,997.87 1072.56,996.87 1074,995.5C 1074.52,992.977 1075.85,990.977 1078,989.5C 1078.33,989.833 1078.67,990.167 1079,990.5C 1080.41,988.586 1082.25,987.253 1084.5,986.5C 1085.26,985.372 1085.93,984.205 1086.5,983C 1091.83,981.525 1095.83,978.359 1098.5,973.5 Z"/></g>
<g><path style="opacity:0.005" fill="#130ac7" d="M 436.5,1101.5 C 436.5,1101.83 436.5,1102.17 436.5,1102.5C 435.141,1097.69 434.141,1092.69 433.5,1087.5C 433.653,1084.53 433.653,1081.53 433.5,1078.5C 434.059,1070.24 435.393,1062.24 437.5,1054.5C 438.768,1052.09 439.435,1049.43 439.5,1046.5C 439.351,1045.45 439.517,1044.45 440,1043.5C 441.03,1045.78 442.53,1046.44 444.5,1045.5C 445.672,1045.92 446.672,1046.59 447.5,1047.5C 444.761,1054.72 442.428,1062.05 440.5,1069.5C 440.036,1073.71 440.703,1077.87 442.5,1082C 438.882,1087.96 436.882,1094.46 436.5,1101.5 Z"/></g>
<g><path style="opacity:0.994" fill="#59bafb" d="M 727.5,1027.5 C 724.795,1031.74 722.461,1036.24 720.5,1041C 723.255,1042.71 725.589,1044.88 727.5,1047.5C 729.862,1049.36 732.529,1050.53 735.5,1051C 732.803,1053.81 733.303,1054.64 737,1053.5C 738.233,1058.61 739.066,1063.61 739.5,1068.5C 741.409,1069.35 743.409,1069.68 745.5,1069.5C 745.008,1071.82 744.008,1073.82 742.5,1075.5C 740.482,1076.62 738.482,1076.62 736.5,1075.5C 732.981,1072.15 729.314,1068.98 725.5,1066C 723.296,1062.59 721.63,1058.93 720.5,1055C 719.271,1054.22 717.938,1053.72 716.5,1053.5C 713.605,1055.24 710.605,1056.57 707.5,1057.5C 708.703,1047.69 713.037,1039.19 720.5,1032C 722.717,1030.28 725.05,1028.78 727.5,1027.5 Z"/></g>
<g><path style="opacity:0.004" fill="#000000" d="M 439.5,1046.5 C 439.435,1049.43 438.768,1052.09 437.5,1054.5C 437.294,1051.5 437.96,1048.84 439.5,1046.5 Z"/></g>
<g><path style="opacity:0.004" fill="#b6ddfc" d="M 755.5,1041.5 C 756.833,1046.17 756.833,1050.83 755.5,1055.5C 754.275,1054.85 753.608,1053.68 753.5,1052C 753.855,1048.3 754.522,1044.8 755.5,1041.5 Z"/></g>
<g><path style="opacity:0.012" fill="#5fbfbf" d="M 863.5,1047.5 C 864.5,1047.5 865.5,1047.5 866.5,1047.5C 866.998,1050.83 867.998,1054 869.5,1057C 868.663,1058.01 868.33,1059.18 868.5,1060.5C 868.167,1060.5 867.833,1060.5 867.5,1060.5C 865.768,1056.3 864.435,1051.97 863.5,1047.5 Z"/></g>
<g><path style="opacity:0.982" fill="#67c0fc" d="M 908.5,1029.5 C 917.056,1033.06 923.723,1038.73 928.5,1046.5C 928.298,1047.36 927.964,1048.36 927.5,1049.5C 926.252,1050.04 925.085,1050.71 924,1051.5C 923,1051.17 922,1050.83 921,1050.5C 917.053,1052.78 913.387,1055.45 910,1058.5C 908.699,1060.36 908.365,1062.36 909,1064.5C 911.398,1068.06 913.565,1071.72 915.5,1075.5C 912.01,1083.24 906.344,1085.41 898.5,1082C 895.176,1080.04 892.176,1077.87 889.5,1075.5C 886.1,1070.36 884.1,1064.69 883.5,1058.5C 884.391,1059.26 885.058,1060.26 885.5,1061.5C 886.723,1062.61 888.056,1062.78 889.5,1062C 891.583,1058.8 893.917,1055.8 896.5,1053C 896.501,1049.7 896.334,1046.2 896,1042.5C 891.147,1029.55 895.314,1025.21 908.5,1029.5 Z"/></g>
<g><path style="opacity:0.778" fill="#0f75cd" d="M 694.5,1040.5 C 696.171,1045.15 696.504,1049.82 695.5,1054.5C 668.438,1055.41 641.605,1056.74 615,1058.5C 584.961,1062.61 554.794,1065.94 524.5,1068.5C 525.371,1064.82 526.371,1061.15 527.5,1057.5C 560.992,1054.67 593.825,1051.33 626,1047.5C 626.333,1047.83 626.667,1048.17 627,1048.5C 638.825,1047.02 650.992,1045.69 663.5,1044.5C 664.442,1044.61 665.275,1044.94 666,1045.5C 672.703,1044.77 679.369,1043.77 686,1042.5C 686.333,1042.83 686.667,1043.17 687,1043.5C 689.76,1042.97 692.26,1041.97 694.5,1040.5 Z"/></g>
<g><path style="opacity:0.004" fill="#28c6d1" d="M 862.5,1047.5 C 863.293,1051.88 864.293,1056.21 865.5,1060.5C 863.5,1060.83 861.5,1061.17 859.5,1061.5C 859.662,1059.47 859.495,1057.47 859,1055.5C 858.506,1057.13 858.34,1058.8 858.5,1060.5C 857.475,1057.03 856.808,1053.36 856.5,1049.5C 858.374,1048.71 860.374,1048.05 862.5,1047.5 Z"/></g>
<g><path style="opacity:0.004" fill="#0000ff" d="M 1194.5,1051.5 C 1194.37,1053.22 1194.04,1054.88 1193.5,1056.5C 1192.78,1054.78 1192.11,1052.95 1191.5,1051C 1192.75,1050.26 1193.75,1050.43 1194.5,1051.5 Z"/></g>
<g><path style="opacity:0.008" fill="#3a7efb" d="M 862.5,1047.5 C 862.833,1047.5 863.167,1047.5 863.5,1047.5C 864.435,1051.97 865.768,1056.3 867.5,1060.5C 866.833,1060.5 866.167,1060.5 865.5,1060.5C 864.293,1056.21 863.293,1051.88 862.5,1047.5 Z"/></g>
<g><path style="opacity:0.004" fill="#000000" d="M 1194.5,1051.5 C 1195.12,1051.92 1195.46,1052.58 1195.5,1053.5C 1195,1055.5 1194.5,1057.5 1194,1059.5C 1193.52,1058.55 1193.35,1057.55 1193.5,1056.5C 1194.04,1054.88 1194.37,1053.22 1194.5,1051.5 Z"/></g>
<g><path style="opacity:0.789" fill="#0d6dcc" d="M 695.5,1054.5 C 694.85,1056.44 694.517,1058.44 694.5,1060.5C 645.768,1061.22 597.102,1065.05 548.5,1072C 540.198,1073.05 531.865,1073.55 523.5,1073.5C 524.301,1071.96 524.634,1070.29 524.5,1068.5C 554.794,1065.94 584.961,1062.61 615,1058.5C 641.605,1056.74 668.438,1055.41 695.5,1054.5 Z"/></g>
<g><path style="opacity:0.02" fill="#3c96dd" d="M 868.5,1060.5 C 868.33,1059.18 868.663,1058.01 869.5,1057C 867.998,1054 866.998,1050.83 866.5,1047.5C 869.784,1047.28 872.951,1046.61 876,1045.5C 877.082,1049.86 877.249,1054.2 876.5,1058.5C 873.856,1059.3 871.189,1059.96 868.5,1060.5 Z"/></g>
<g><path style="opacity:1" fill="#d8bc8c" d="M 753.5,1057.5 C 765.968,1062.7 778.968,1065.87 792.5,1067C 810.5,1067.67 828.5,1067.67 846.5,1067C 856.983,1066.37 867.316,1064.87 877.5,1062.5C 879.274,1065.19 880.608,1068.19 881.5,1071.5C 875.813,1080.85 868.146,1088.19 858.5,1093.5C 838.44,1076.65 816.44,1073.49 792.5,1084C 787.947,1087.73 784.281,1092.23 781.5,1097.5C 769.649,1090.49 759.482,1081.49 751,1070.5C 751.347,1066.1 752.181,1061.77 753.5,1057.5 Z"/></g>
<g><path style="opacity:0.004" fill="#0b02d9" d="M 809.5,1063.5 C 807.393,1064.47 805.059,1064.8 802.5,1064.5C 804.5,1062.33 806.334,1060 808,1057.5C 808.813,1059.44 809.313,1061.44 809.5,1063.5 Z"/></g>
<g><path style="opacity:0.997" fill="#39acfb" d="M 733.5,1022.5 C 731.909,1024.63 729.909,1026.3 727.5,1027.5C 725.05,1028.78 722.717,1030.28 720.5,1032C 713.037,1039.19 708.703,1047.69 707.5,1057.5C 710.605,1056.57 713.605,1055.24 716.5,1053.5C 717.938,1053.72 719.271,1054.22 720.5,1055C 721.63,1058.93 723.296,1062.59 725.5,1066C 729.314,1068.98 732.981,1072.15 736.5,1075.5C 738.482,1076.62 740.482,1076.62 742.5,1075.5C 742.141,1077.37 741.141,1078.87 739.5,1080C 735.759,1082.73 731.759,1085.07 727.5,1087C 719.791,1087.65 713.125,1085.32 707.5,1080C 699.877,1074.36 697.043,1066.86 699,1057.5C 705.963,1041.37 717.463,1029.7 733.5,1022.5 Z"/></g>
<g><path style="opacity:0.816" fill="#0b62cb" d="M 694.5,1060.5 C 694.423,1064.21 694.756,1067.88 695.5,1071.5C 674.177,1072.41 652.844,1073.24 631.5,1074C 595.484,1077.06 559.484,1080.22 523.5,1083.5C 523.5,1080.17 523.5,1076.83 523.5,1073.5C 531.865,1073.55 540.198,1073.05 548.5,1072C 597.102,1065.05 645.768,1061.22 694.5,1060.5 Z"/></g>
<g><path style="opacity:0.828" fill="#0a59ca" d="M 695.5,1071.5 C 696.441,1073.05 697.107,1074.72 697.5,1076.5C 695.795,1075.91 694.128,1075.58 692.5,1075.5C 672.48,1077.08 652.647,1078.41 633,1079.5C 632.667,1079.17 632.333,1078.83 632,1078.5C 596.719,1081.94 560.885,1085.27 524.5,1088.5C 523.962,1086.88 523.629,1085.22 523.5,1083.5C 559.484,1080.22 595.484,1077.06 631.5,1074C 652.844,1073.24 674.177,1072.41 695.5,1071.5 Z"/></g>
<g><path style="opacity:0.981" fill="#4eb4fa" d="M 928.5,1046.5 C 941.031,1058.96 941.697,1072.12 930.5,1086C 913.539,1096.19 899.873,1092.69 889.5,1075.5C 892.176,1077.87 895.176,1080.04 898.5,1082C 906.344,1085.41 912.01,1083.24 915.5,1075.5C 913.565,1071.72 911.398,1068.06 909,1064.5C 908.365,1062.36 908.699,1060.36 910,1058.5C 913.387,1055.45 917.053,1052.78 921,1050.5C 922,1050.83 923,1051.17 924,1051.5C 925.085,1050.71 926.252,1050.04 927.5,1049.5C 927.964,1048.36 928.298,1047.36 928.5,1046.5 Z"/></g>
<g><path style="opacity:1" fill="#f5cb00" d="M 748.5,1072.5 C 765.925,1100.37 791.259,1112.54 824.5,1109C 848.882,1106.51 868.882,1096.01 884.5,1077.5C 889.501,1085.66 896.501,1091.5 905.5,1095C 871.699,1128.93 831.365,1140.6 784.5,1130C 761.896,1123.62 742.729,1111.79 727,1094.5C 726.383,1093.55 726.549,1092.72 727.5,1092C 737.913,1089.08 744.913,1082.58 748.5,1072.5 Z"/></g>
<g><path style="opacity:0.839" fill="#0854cb" d="M 697.5,1076.5 C 698.906,1076.97 699.573,1077.97 699.5,1079.5C 694.358,1080.65 689.025,1081.48 683.5,1082C 634.806,1083.46 586.639,1087.63 539,1094.5C 535.058,1093.27 530.891,1093.27 526.5,1094.5C 525.262,1092.79 524.595,1090.79 524.5,1088.5C 560.885,1085.27 596.719,1081.94 632,1078.5C 632.333,1078.83 632.667,1079.17 633,1079.5C 652.647,1078.41 672.48,1077.08 692.5,1075.5C 694.128,1075.58 695.795,1075.91 697.5,1076.5 Z"/></g>
<g><path style="opacity:0.004" fill="#1d3fff" d="M 1173.5,1075.5 C 1174.53,1075.9 1174.69,1076.56 1174,1077.5C 1173.54,1076.91 1173.37,1076.24 1173.5,1075.5 Z"/></g>
<g><path style="opacity:0.851" fill="#074dcb" d="M 699.5,1079.5 C 702.109,1080.44 704.109,1082.11 705.5,1084.5C 684.373,1088.95 663.206,1090.95 642,1090.5C 610.817,1092.97 579.651,1096.14 548.5,1100C 541.842,1100.5 535.175,1100.67 528.5,1100.5C 527.637,1098.58 526.971,1096.58 526.5,1094.5C 530.891,1093.27 535.058,1093.27 539,1094.5C 586.639,1087.63 634.806,1083.46 683.5,1082C 689.025,1081.48 694.358,1080.65 699.5,1079.5 Z"/></g>
<g><path style="opacity:1" fill="#d03738" d="M 813.5,1083.5 C 828.268,1082.87 841.268,1087.2 852.5,1096.5C 837.512,1104.61 821.512,1107.44 804.5,1105C 797.588,1103.81 790.921,1101.81 784.5,1099C 792.011,1089.58 801.678,1084.41 813.5,1083.5 Z"/></g>
<g><path style="opacity:0.872" fill="#0643cb" d="M 705.5,1084.5 C 709.034,1087.1 712.7,1089.43 716.5,1091.5C 690.314,1099.23 663.981,1102.89 637.5,1102.5C 603.149,1104.93 568.816,1107.59 534.5,1110.5C 531.498,1107.84 529.498,1104.51 528.5,1100.5C 535.175,1100.67 541.842,1100.5 548.5,1100C 579.651,1096.14 610.817,1092.97 642,1090.5C 663.206,1090.95 684.373,1088.95 705.5,1084.5 Z"/></g>
<g><path style="opacity:1" fill="#040000" d="M 818.5,1087.5 C 819.014,1091.7 820.014,1095.87 821.5,1100C 820.975,1100.69 820.308,1101.19 819.5,1101.5C 815.902,1097.18 815.569,1092.52 818.5,1087.5 Z"/></g>
<g><path style="opacity:0.892" fill="#0336cc" d="M 716.5,1091.5 C 717.239,1091.37 717.906,1091.54 718.5,1092C 720.334,1094.66 722.334,1097.16 724.5,1099.5C 703.926,1107.65 682.76,1111.98 661,1112.5C 637.918,1114.41 614.752,1115.91 591.5,1117C 575.453,1118.02 559.786,1119.52 544.5,1121.5C 540.434,1118.44 537.101,1114.77 534.5,1110.5C 568.816,1107.59 603.149,1104.93 637.5,1102.5C 663.981,1102.89 690.314,1099.23 716.5,1091.5 Z"/></g>
<g><path style="opacity:0.005" fill="#1506ce" d="M 436.5,1101.5 C 439.403,1106.98 442.07,1112.64 444.5,1118.5C 444.481,1120.06 444.148,1121.56 443.5,1123C 445.886,1131.27 449.22,1139.1 453.5,1146.5C 453.154,1147.7 452.654,1147.7 452,1146.5C 451.333,1145.17 450.667,1143.83 450,1142.5C 450.313,1146.33 451.813,1149.66 454.5,1152.5C 454.5,1154.5 454.5,1156.5 454.5,1158.5C 443.245,1141.47 437.245,1122.8 436.5,1102.5C 436.5,1102.17 436.5,1101.83 436.5,1101.5 Z"/></g>
<g><path style="opacity:0.912" fill="#0029cb" d="M 724.5,1099.5 C 726.683,1100.85 728.35,1102.68 729.5,1105C 729.245,1109.78 729.078,1114.61 729,1119.5C 724.973,1122.6 720.473,1124.76 715.5,1126C 693.525,1127.4 671.525,1128.4 649.5,1129C 637.386,1130.7 625.386,1133.04 613.5,1136C 602.108,1136.91 590.775,1136.58 579.5,1135C 569.804,1134.04 559.804,1131.04 549.5,1126C 547.382,1124.95 545.716,1123.45 544.5,1121.5C 559.786,1119.52 575.453,1118.02 591.5,1117C 614.752,1115.91 637.918,1114.41 661,1112.5C 682.76,1111.98 703.926,1107.65 724.5,1099.5 Z"/></g>
<g><path style="opacity:0.004" fill="#0000f5" d="M 881.5,1122.5 C 880.588,1124.6 879.421,1126.6 878,1128.5C 877.506,1130.13 877.34,1131.8 877.5,1133.5C 876.19,1131.57 874.857,1129.57 873.5,1127.5C 875.822,1125.34 878.489,1123.67 881.5,1122.5 Z"/></g>
<g><path style="opacity:0.016" fill="#0316c1" d="M 444.5,1118.5 C 449.918,1127 454.584,1136 458.5,1145.5C 456.873,1147.77 455.539,1150.1 454.5,1152.5C 451.813,1149.66 450.313,1146.33 450,1142.5C 450.667,1143.83 451.333,1145.17 452,1146.5C 452.654,1147.7 453.154,1147.7 453.5,1146.5C 449.22,1139.1 445.886,1131.27 443.5,1123C 444.148,1121.56 444.481,1120.06 444.5,1118.5 Z"/></g>
<g><path style="opacity:0.004" fill="#000000" d="M 878.5,1138.5 C 879.833,1139.17 879.833,1139.17 878.5,1138.5 Z"/></g>
<g><path style="opacity:0.005" fill="#1213ca" d="M 799.5,1139.5 C 802.518,1139.7 805.518,1140.04 808.5,1140.5C 807.566,1144.37 806.066,1148.04 804,1151.5C 803.07,1148.64 801.403,1146.31 799,1144.5C 798.36,1142.73 798.527,1141.07 799.5,1139.5 Z"/></g>
<g><path style="opacity:0.004" fill="#000000" d="M 454.5,1158.5 C 455.833,1159.17 455.833,1159.17 454.5,1158.5 Z"/></g>
<g><path style="opacity:0.004" fill="#000000" d="M 799.5,1158.5 C 800.833,1159.17 800.833,1159.17 799.5,1158.5 Z"/></g>
<g><path style="opacity:0.004" fill="#000000" d="M 455.5,1160.5 C 456.833,1161.17 456.833,1161.17 455.5,1160.5 Z"/></g>
<g><path style="opacity:0.004" fill="#000000" d="M 458.5,1164.5 C 459.833,1165.17 459.833,1165.17 458.5,1164.5 Z"/></g>
<g><path style="opacity:0.004" fill="#000000" d="M 462.5,1169.5 C 463.833,1170.17 463.833,1170.17 462.5,1169.5 Z"/></g>
<g><path style="opacity:0.004" fill="#0000ff" d="M 473.5,1179.5 C 472.833,1178.17 472.833,1178.17 473.5,1179.5 Z"/></g>
<g><path style="opacity:0.004" fill="#000000" d="M 473.5,1179.5 C 474.833,1180.17 474.833,1180.17 473.5,1179.5 Z"/></g>
<g><path style="opacity:0.004" fill="#000000" d="M 773.5,1187.5 C 774.833,1188.17 774.833,1188.17 773.5,1187.5 Z"/></g>
<g><path style="opacity:0.039" fill="#0816c7" d="M 492.5,1190.5 C 500.47,1193.7 508.803,1195.2 517.5,1195C 512.609,1196.11 508.275,1198.28 504.5,1201.5C 499.746,1198.91 495.413,1195.75 491.5,1192C 492.056,1191.62 492.389,1191.12 492.5,1190.5 Z"/></g>
<g><path style="opacity:0.004" fill="#0000ff" d="M 943.5,1197.5 C 941.214,1197.41 939.214,1196.74 937.5,1195.5C 939.214,1196.74 941.214,1197.41 943.5,1197.5 Z"/></g>
<g><path style="opacity:0.004" fill="#000000" d="M 937.5,1195.5 C 939.214,1196.74 941.214,1197.41 943.5,1197.5C 944.463,1198.36 944.463,1199.03 943.5,1199.5C 940.675,1198.62 938.008,1197.45 935.5,1196C 936.094,1195.54 936.761,1195.37 937.5,1195.5 Z"/></g>
<g><path style="opacity:0.004" fill="#220eb8" d="M 752.5,1199.5 C 753.251,1198.43 754.251,1198.26 755.5,1199C 754.552,1199.48 753.552,1199.65 752.5,1199.5 Z"/></g>
<g><path style="opacity:0.005" fill="#1506d3" d="M 739.5,1199.5 C 743.833,1199.5 748.167,1199.5 752.5,1199.5C 750.507,1201.16 748.174,1202.33 745.5,1203C 729.982,1206.98 713.982,1208.48 697.5,1207.5C 699.132,1204.93 701.298,1204.26 704,1205.5C 705.133,1203.79 706.633,1203.29 708.5,1204C 708.167,1204.33 707.833,1204.67 707.5,1205C 712.167,1205.67 716.833,1205.67 721.5,1205C 718.118,1204.82 714.785,1204.32 711.5,1203.5C 711.833,1203.17 712.167,1202.83 712.5,1202.5C 715.468,1203.37 718.301,1203.7 721,1203.5C 727.347,1202.53 733.513,1201.19 739.5,1199.5 Z"/></g>
<g><path style="opacity:0.02" fill="#021dbc" d="M 739.5,1199.5 C 733.513,1201.19 727.347,1202.53 721,1203.5C 718.301,1203.7 715.468,1203.37 712.5,1202.5C 712.167,1202.83 711.833,1203.17 711.5,1203.5C 714.785,1204.32 718.118,1204.82 721.5,1205C 716.833,1205.67 712.167,1205.67 707.5,1205C 707.833,1204.67 708.167,1204.33 708.5,1204C 706.633,1203.29 705.133,1203.79 704,1205.5C 701.298,1204.26 699.132,1204.93 697.5,1207.5C 696.244,1207.1 695.077,1206.43 694,1205.5C 692.469,1206.22 691.136,1207.22 690,1208.5C 688.667,1207.83 687.333,1207.17 686,1206.5C 684.189,1207.42 684.355,1208.26 686.5,1209C 685.833,1209.17 685.167,1209.33 684.5,1209.5C 681.231,1209.16 677.731,1208.49 674,1207.5C 673.167,1207.83 672.333,1208.17 671.5,1208.5C 672.729,1209.28 674.062,1209.78 675.5,1210C 668.107,1210.69 661.107,1210.52 654.5,1209.5C 682.381,1203.47 710.714,1200.14 739.5,1199.5 Z"/></g>
<g><path style="opacity:0.006" fill="#1908d8" d="M 697.5,1207.5 C 695.438,1208.78 693.104,1209.61 690.5,1210C 674.588,1212.37 658.588,1212.7 642.5,1211C 646.466,1210.17 650.466,1209.67 654.5,1209.5C 661.107,1210.52 668.107,1210.69 675.5,1210C 674.062,1209.78 672.729,1209.28 671.5,1208.5C 672.333,1208.17 673.167,1207.83 674,1207.5C 677.731,1208.49 681.231,1209.16 684.5,1209.5C 685.167,1209.33 685.833,1209.17 686.5,1209C 684.355,1208.26 684.189,1207.42 686,1206.5C 687.333,1207.17 688.667,1207.83 690,1208.5C 691.136,1207.22 692.469,1206.22 694,1205.5C 695.077,1206.43 696.244,1207.1 697.5,1207.5 Z"/></g>
<g><path style="opacity:0.004" fill="#1b0e3b" d="M 636.5,1212.5 C 637.251,1211.43 638.251,1211.26 639.5,1212C 638.552,1212.48 637.552,1212.65 636.5,1212.5 Z"/></g>
<g><path style="opacity:0.004" fill="#000000" d="M 630.5,1212.5 C 631.833,1213.17 631.833,1213.17 630.5,1212.5 Z"/></g>
<g><path style="opacity:0.016" fill="#48d3e5" d="M 1037.5,1521.5 C 1039.24,1523.12 1039.74,1525.12 1039,1527.5C 1037.87,1525.65 1037.37,1523.65 1037.5,1521.5 Z"/></g>
<g><path style="opacity:0.008" fill="#3d7eff" d="M 1034.5,1541.5 C 1033.83,1541.5 1033.17,1541.5 1032.5,1541.5C 1033.17,1538.83 1033.83,1538.83 1034.5,1541.5 Z"/></g>
<g><path style="opacity:0.008" fill="#4a6aff" d="M 1032.5,1550.5 C 1033.6,1551.6 1033.76,1552.93 1033,1554.5C 1032.62,1553.94 1032.12,1553.61 1031.5,1553.5C 1032.1,1552.37 1032.44,1551.37 1032.5,1550.5 Z"/></g>
<g><path style="opacity:0.979" fill="#000000" d="M 477.5,1556.5 C 494.817,1564.96 511.817,1574.13 528.5,1584C 525.983,1584.26 523.65,1583.59 521.5,1582C 508.26,1573.55 494.593,1566.55 480.5,1561C 478.859,1559.87 477.859,1558.37 477.5,1556.5 Z"/></g>
<g><path style="opacity:0.031" fill="#48b7d9" d="M 1032.5,1541.5 C 1033.17,1541.5 1033.83,1541.5 1034.5,1541.5C 1035.56,1542.6 1036.39,1543.93 1037,1545.5C 1037.72,1571.32 1045.05,1594.99 1059,1616.5C 1067.94,1628.62 1079.11,1637.95 1092.5,1644.5C 1092.5,1645.17 1092.5,1645.83 1092.5,1646.5C 1053.18,1627.86 1032.85,1596.86 1031.5,1553.5C 1032.12,1553.61 1032.62,1553.94 1033,1554.5C 1033.76,1552.93 1033.6,1551.6 1032.5,1550.5C 1032.11,1547.68 1032.11,1544.68 1032.5,1541.5 Z"/></g>
<g><path style="opacity:0.004" fill="#4acef1" d="M 1092.5,1644.5 C 1096.32,1645.99 1099.99,1647.66 1103.5,1649.5C 1099.76,1648.8 1096.1,1647.8 1092.5,1646.5C 1092.5,1645.83 1092.5,1645.17 1092.5,1644.5 Z"/></g>
<g><path style="opacity:0.004" fill="#00fffe" d="M 1103.5,1649.5 C 1104.24,1649.37 1104.91,1649.54 1105.5,1650C 1104.56,1650.69 1103.9,1650.53 1103.5,1649.5 Z"/></g>
<g><path style="opacity:0.004" fill="#00fffe" d="M 1107.5,1650.5 C 1108.83,1651.17 1108.83,1651.17 1107.5,1650.5 Z"/></g>
</svg>
